<svg width="211" height="45" viewBox="0 0 211 45" fill="none" xmlns="http://www.w3.org/2000/svg">
<path d="M0.63 30L3.942 16.86H6.84L10.17 30H7.866L7.146 26.814H3.654L2.934 30H0.63ZM4.068 24.978H6.732L5.94 21.45C5.808 20.862 5.694 20.334 5.598 19.866C5.502 19.386 5.436 19.038 5.4 18.822C5.364 19.038 5.298 19.386 5.202 19.866C5.118 20.334 5.004 20.856 4.86 21.432L4.068 24.978ZM12.143 30V16.86H16.049C16.937 16.86 17.705 17.028 18.353 17.364C19.013 17.7 19.523 18.174 19.883 18.786C20.243 19.398 20.423 20.124 20.423 20.964V25.878C20.423 26.706 20.243 27.432 19.883 28.056C19.523 28.668 19.013 29.148 18.353 29.496C17.705 29.832 16.937 30 16.049 30H12.143ZM14.393 27.93H16.049C16.697 27.93 17.213 27.75 17.597 27.39C17.981 27.018 18.173 26.514 18.173 25.878V20.964C18.173 20.34 17.981 19.848 17.597 19.488C17.213 19.116 16.697 18.93 16.049 18.93H14.393V27.93ZM23.1699 30V16.86H31.0539V18.822H25.3839V22.242H30.4239V24.186H25.3839V28.038H31.0539V30H23.1699ZM34.2329 30V16.86H36.4829V27.912H42.0629V30H34.2329ZM43.8019 30L47.1139 16.86H50.0119L53.3419 30H51.0379L50.3179 26.814H46.8259L46.1059 30H43.8019ZM47.2399 24.978H49.9039L49.1119 21.45C48.9799 20.862 48.8659 20.334 48.7699 19.866C48.6739 19.386 48.6079 19.038 48.5719 18.822C48.5359 19.038 48.4699 19.386 48.3739 19.866C48.2899 20.334 48.1759 20.856 48.0319 21.432L47.2399 24.978ZM55.5848 30V28.02H58.2308V18.84H55.5848V16.86H63.1448V18.84H60.4988V28.02H63.1448V30H55.5848ZM66.1078 30V16.86H70.0138C70.9018 16.86 71.6698 17.028 72.3178 17.364C72.9778 17.7 73.4878 18.174 73.8478 18.786C74.2078 19.398 74.3878 20.124 74.3878 20.964V25.878C74.3878 26.706 74.2078 27.432 73.8478 28.056C73.4878 28.668 72.9778 29.148 72.3178 29.496C71.6698 29.832 70.9018 30 70.0138 30H66.1078ZM68.3578 27.93H70.0138C70.6618 27.93 71.1778 27.75 71.5618 27.39C71.9458 27.018 72.1378 26.514 72.1378 25.878V20.964C72.1378 20.34 71.9458 19.848 71.5618 19.488C71.1778 19.116 70.6618 18.93 70.0138 18.93H68.3578V27.93ZM76.1808 30L79.4928 16.86H82.3908L85.7208 30H83.4168L82.6968 26.814H79.2048L78.4848 30H76.1808ZM79.6188 24.978H82.2828L81.4908 21.45C81.3588 20.862 81.2448 20.334 81.1488 19.866C81.0528 19.386 80.9868 19.038 80.9508 18.822C80.9148 19.038 80.8488 19.386 80.7528 19.866C80.6688 20.334 80.5548 20.856 80.4108 21.432L79.6188 24.978Z" fill="#424242"/>
<path d="M113.792 31.064C113.384 31.424 112.904 31.694 112.352 31.874C111.8 32.054 111.2 32.144 110.552 32.144C109.904 32.144 109.304 32.054 108.752 31.874C108.2 31.694 107.72 31.424 107.312 31.064C106.904 30.716 106.586 30.278 106.358 29.75C106.13 29.222 106.016 28.616 106.016 27.932V20.822H104.63V19.4H108.986V20.822H107.51V27.878C107.51 28.334 107.582 28.742 107.726 29.102C107.882 29.45 108.098 29.744 108.374 29.984C108.638 30.224 108.956 30.41 109.328 30.542C109.7 30.662 110.108 30.722 110.552 30.722C110.996 30.722 111.404 30.662 111.776 30.542C112.148 30.41 112.472 30.224 112.748 29.984C113.012 29.744 113.222 29.45 113.378 29.102C113.534 28.742 113.612 28.334 113.612 27.878V20.822H112.136V19.4H116.492V20.822H115.106V27.932C115.106 28.616 114.986 29.222 114.746 29.75C114.518 30.278 114.2 30.716 113.792 31.064Z" fill="#FF9776"/>
<path d="M92.008 30V16.86H94.672L95.95 21.036C96.082 21.456 96.19 21.84 96.274 22.188C96.358 22.536 96.412 22.788 96.436 22.944C96.46 22.788 96.514 22.536 96.598 22.188C96.682 21.84 96.784 21.456 96.904 21.036L98.128 16.86H100.792V30H98.686V25.914C98.686 25.314 98.704 24.66 98.74 23.952C98.776 23.244 98.818 22.536 98.866 21.828C98.914 21.12 98.968 20.448 99.028 19.812C99.1 19.176 99.16 18.618 99.208 18.138L97.444 24.348H95.392L93.574 18.138C93.634 18.594 93.694 19.134 93.754 19.758C93.814 20.37 93.868 21.03 93.916 21.738C93.976 22.434 94.024 23.142 94.06 23.862C94.096 24.582 94.114 25.266 94.114 25.914V30H92.008Z" fill="#424242"/>
<circle cx="107.5" cy="14.5" r="1.5" fill="#424242"/>
<path d="M121.368 31V17.86H123.618V23.17H125.184L127.65 17.86H130.098L127.164 24.16L130.242 31H127.74L125.148 25.222H123.618V31H121.368ZM132.179 31V17.86H134.429V23.134H137.957V17.86H140.207V31H137.957V25.222H134.429V31H132.179ZM143.206 31V29.02H145.852V19.84H143.206V17.86H150.766V19.84H148.12V29.02H150.766V31H143.206ZM156.645 31V19.948H153.207V17.86H162.351V19.948H158.913V31H156.645ZM164.594 31V28.858L169.868 19.948H164.72V17.86H172.352V20.002L167.06 28.912H172.55V31H164.594ZM175.351 31V17.86H177.601V23.134H181.129V17.86H183.379V31H181.129V25.222H177.601V31H175.351ZM185.388 31L188.7 17.86H191.598L194.928 31H192.624L191.904 27.814H188.412L187.692 31H185.388ZM188.826 25.978H191.49L190.698 22.45C190.566 21.862 190.452 21.334 190.356 20.866C190.26 20.386 190.194 20.038 190.158 19.822C190.122 20.038 190.056 20.386 189.96 20.866C189.876 21.334 189.762 21.856 189.618 22.432L188.826 25.978ZM196.847 31V17.86H199.601L203.255 28.48C203.219 28.096 203.177 27.646 203.129 27.13C203.093 26.602 203.063 26.068 203.039 25.528C203.015 24.976 203.003 24.496 203.003 24.088V17.86H205.055V31H202.301L198.683 20.38C198.707 20.728 198.737 21.148 198.773 21.64C198.809 22.132 198.839 22.636 198.863 23.152C198.887 23.668 198.899 24.142 198.899 24.574V31H196.847Z" fill="#424242"/>
<circle cx="114.5" cy="14.5" r="1.5" fill="#424242"/>
</svg>
