<svg width="517" height="517" viewBox="0 0 517 517" fill="none" xmlns="http://www.w3.org/2000/svg">
<path d="M345 460C333.667 470 320.333 477.5 305 482.5C289.667 487.5 273 490 255 490C237 490 220.333 487.5 205 482.5C189.667 477.5 176.333 470 165 460C153.667 450.333 144.833 438.167 138.5 423.5C132.167 408.833 129 392 129 373V175.5H90.5V136H211.5V175.5H170.5V371.5C170.5 384.167 172.5 395.5 176.5 405.5C180.833 415.167 186.833 423.333 194.5 430C201.833 436.667 210.667 441.833 221 445.5C231.333 448.833 242.667 450.5 255 450.5C267.333 450.5 278.667 448.833 289 445.5C299.333 441.833 308.333 436.667 316 430C323.333 423.333 329.167 415.167 333.5 405.5C337.833 395.5 340 384.167 340 371.5V175.5H299V136H420V175.5H381.5V373C381.5 392 378.167 408.833 371.5 423.5C365.167 438.167 356.333 450.333 345 460Z" fill="#FF9776"/>
<circle cx="148" cy="52" r="40" fill="#424242"/>
<circle cx="357" cy="52" r="40" fill="#424242"/>
</svg>
